<mxfile host="Electron" modified="2023-04-01T20:51:38.800Z" agent="Mozilla/5.0 (Windows NT 10.0; Win64; x64) AppleWebKit/537.36 (KHTML, like Gecko) draw.io/21.1.2 Chrome/106.0.5249.199 Electron/21.4.3 Safari/537.36" etag="JXkA2SsNO25zUuYFafz0" version="21.1.2" type="device" pages="7">
  <diagram name="Classes" id="mLVHeWxPkZ-jcZuv_nvR">
    <mxGraphModel dx="1434" dy="1984" grid="1" gridSize="10" guides="1" tooltips="1" connect="1" arrows="1" fold="1" page="1" pageScale="1" pageWidth="850" pageHeight="1100" math="0" shadow="0">
      <root>
        <mxCell id="0" />
        <mxCell id="1" parent="0" />
        <mxCell id="8DvURPKfdgImDRDGtx_2-46" value="Ranger" style="rounded=1;whiteSpace=wrap;html=1;strokeColor=#005700;fontColor=#ffffff;fillColor=#008a00;shadow=1;gradientColor=#002B19;" parent="1" vertex="1">
          <mxGeometry x="150" y="-1030" width="120" height="60" as="geometry" />
        </mxCell>
        <mxCell id="8DvURPKfdgImDRDGtx_2-47" value="Mage" style="rounded=1;whiteSpace=wrap;html=1;strokeColor=#000000;fontColor=#ffffff;fillColor=#1ba1e2;shadow=1;gradientColor=#2B2BF0;" parent="1" vertex="1">
          <mxGeometry x="280" y="-1030" width="120" height="60" as="geometry" />
        </mxCell>
        <mxCell id="8DvURPKfdgImDRDGtx_2-48" value="Engineer" style="rounded=1;whiteSpace=wrap;html=1;strokeColor=#A50040;fontColor=#ffffff;fillColor=#d80073;shadow=1;labelBorderColor=none;gradientColor=#77067A;" parent="1" vertex="1">
          <mxGeometry x="410" y="-1030" width="120" height="60" as="geometry" />
        </mxCell>
        <mxCell id="8DvURPKfdgImDRDGtx_2-49" value="Rogue" style="rounded=1;whiteSpace=wrap;html=1;strokeColor=#050505;fontColor=#ffffff;fillColor=#76608a;shadow=1;gradientColor=#77067A;labelBorderColor=none;" parent="1" vertex="1">
          <mxGeometry x="540" y="-1030" width="120" height="60" as="geometry" />
        </mxCell>
        <mxCell id="8DvURPKfdgImDRDGtx_2-50" value="Fighter" style="rounded=1;whiteSpace=wrap;html=1;strokeColor=#030303;fontColor=#ffffff;fillColor=#a20025;gradientColor=#F02D1F;shadow=1;" parent="1" vertex="1">
          <mxGeometry x="20" y="-1030" width="120" height="60" as="geometry" />
        </mxCell>
        <mxCell id="8DvURPKfdgImDRDGtx_2-51" value="Summoner" style="rounded=1;whiteSpace=wrap;html=1;strokeColor=#050505;fontColor=#FCFCFC;fillColor=#fa6800;shadow=1;gradientColor=#D97C03;labelBorderColor=none;" parent="1" vertex="1">
          <mxGeometry x="670" y="-1030" width="120" height="60" as="geometry" />
        </mxCell>
        <mxCell id="8DvURPKfdgImDRDGtx_2-52" value="&lt;font style=&quot;font-size: 22px;&quot;&gt;Main Class Types&lt;/font&gt;" style="text;html=1;align=center;verticalAlign=middle;resizable=0;points=[];autosize=1;strokeColor=none;fillColor=none;fontColor=#FCFCFC;" parent="1" vertex="1">
          <mxGeometry x="10" y="-1080" width="200" height="40" as="geometry" />
        </mxCell>
        <mxCell id="nrnN-VGBRazkmz7KobuJ-1" value="Summoner" style="rounded=1;whiteSpace=wrap;html=1;strokeColor=#050505;fontColor=#FCFCFC;fillColor=#fa6800;shadow=1;gradientColor=#D97C03;labelBorderColor=none;" vertex="1" parent="1">
          <mxGeometry x="800" y="-1030" width="120" height="60" as="geometry" />
        </mxCell>
        <mxCell id="nrnN-VGBRazkmz7KobuJ-2" value="Rogue" style="rounded=1;whiteSpace=wrap;html=1;strokeColor=#050505;fontColor=#ffffff;fillColor=#76608a;shadow=1;gradientColor=#77067A;labelBorderColor=none;" vertex="1" parent="1">
          <mxGeometry x="670" y="-1030" width="120" height="60" as="geometry" />
        </mxCell>
        <mxCell id="nrnN-VGBRazkmz7KobuJ-3" value="Cleric" style="rounded=1;whiteSpace=wrap;html=1;strokeColor=#050505;fontColor=#FFFFFF;fillColor=#e3c800;shadow=1;gradientColor=#876004;labelBorderColor=none;" vertex="1" parent="1">
          <mxGeometry x="540" y="-1030" width="120" height="60" as="geometry" />
        </mxCell>
      </root>
    </mxGraphModel>
  </diagram>
  <diagram id="a-NAY1TPNURTJtxel5cd" name="FIghter">
    <mxGraphModel dx="1434" dy="884" grid="1" gridSize="10" guides="1" tooltips="1" connect="1" arrows="1" fold="1" page="1" pageScale="1" pageWidth="850" pageHeight="1100" math="0" shadow="0">
      <root>
        <mxCell id="0" />
        <mxCell id="1" parent="0" />
        <mxCell id="zyOXYTKT6wPIEoL5FRSn-1" value="Fighter" style="rounded=1;whiteSpace=wrap;html=1;strokeColor=#030303;fontColor=#ffffff;fillColor=#a20025;gradientColor=#F02D1F;shadow=1;" parent="1" vertex="1">
          <mxGeometry x="350" y="310" width="120" height="60" as="geometry" />
        </mxCell>
        <mxCell id="zyOXYTKT6wPIEoL5FRSn-2" value="&lt;font style=&quot;font-size: 22px;&quot;&gt;The Fighter:&amp;nbsp;&lt;/font&gt;" style="text;html=1;align=center;verticalAlign=middle;resizable=0;points=[];autosize=1;strokeColor=none;fillColor=none;fontColor=#FCFCFC;" parent="1" vertex="1">
          <mxGeometry x="10" y="20" width="150" height="40" as="geometry" />
        </mxCell>
        <mxCell id="4NhIeG5H12Rct0EHRuBr-1" value="usually recommended for beginners, &lt;br&gt;the fighter is the tank of a group and the most basic and broad class,&lt;br&gt;the fighter is basically the strong guy with a big sword &lt;br&gt;and a possibly a shield or a secondary melee weapon.&lt;br&gt;compared to other classes the fighter is:&lt;br&gt;powerful but slow when it comes to physical based attacks. &lt;br&gt;and weaker when it comes to magical based attacks.&amp;nbsp;" style="text;html=1;align=left;verticalAlign=middle;resizable=0;points=[];autosize=1;strokeColor=none;fillColor=none;fontSize=22;fontColor=#FCFCFC;" parent="1" vertex="1">
          <mxGeometry x="20" y="50" width="690" height="200" as="geometry" />
        </mxCell>
      </root>
    </mxGraphModel>
  </diagram>
  <diagram id="gYRORCN-c8l0pd_6rGcm" name="Ranger">
    <mxGraphModel dx="1434" dy="884" grid="1" gridSize="10" guides="1" tooltips="1" connect="1" arrows="1" fold="1" page="1" pageScale="1" pageWidth="850" pageHeight="1100" math="0" shadow="0">
      <root>
        <mxCell id="0" />
        <mxCell id="1" parent="0" />
        <mxCell id="CCvWwrzAZzHAzWqMaO0L-1" value="Ranger" style="rounded=1;whiteSpace=wrap;html=1;strokeColor=#005700;fontColor=#ffffff;fillColor=#008a00;shadow=1;gradientColor=#002B19;" parent="1" vertex="1">
          <mxGeometry x="350" y="280" width="120" height="60" as="geometry" />
        </mxCell>
        <mxCell id="CCvWwrzAZzHAzWqMaO0L-2" value="&lt;font style=&quot;font-size: 22px;&quot;&gt;The Ranger:&amp;nbsp;&lt;/font&gt;" style="text;html=1;align=center;verticalAlign=middle;resizable=0;points=[];autosize=1;strokeColor=none;fillColor=none;fontColor=#FCFCFC;" parent="1" vertex="1">
          <mxGeometry x="10" y="20" width="150" height="40" as="geometry" />
        </mxCell>
      </root>
    </mxGraphModel>
  </diagram>
  <diagram id="zDqlugORIJNfSs3N-BlQ" name="Mage">
    <mxGraphModel dx="1434" dy="884" grid="1" gridSize="10" guides="1" tooltips="1" connect="1" arrows="1" fold="1" page="1" pageScale="1" pageWidth="850" pageHeight="1100" math="0" shadow="0">
      <root>
        <mxCell id="0" />
        <mxCell id="1" parent="0" />
        <mxCell id="lZ2_c9t7Qfs-7r1YgXu4-1" value="Mage" style="rounded=1;whiteSpace=wrap;html=1;strokeColor=#000000;fontColor=#ffffff;fillColor=#1ba1e2;shadow=1;gradientColor=#2B2BF0;" parent="1" vertex="1">
          <mxGeometry x="370" y="270" width="120" height="60" as="geometry" />
        </mxCell>
        <mxCell id="lZ2_c9t7Qfs-7r1YgXu4-2" value="&lt;font style=&quot;font-size: 22px;&quot;&gt;The Mage:&amp;nbsp;&lt;/font&gt;" style="text;html=1;align=center;verticalAlign=middle;resizable=0;points=[];autosize=1;strokeColor=none;fillColor=none;fontColor=#FCFCFC;" parent="1" vertex="1">
          <mxGeometry x="10" y="10" width="130" height="40" as="geometry" />
        </mxCell>
      </root>
    </mxGraphModel>
  </diagram>
  <diagram id="L9XlTtI86zpqXprhVt06" name="Healer">
    <mxGraphModel dx="1434" dy="884" grid="1" gridSize="10" guides="1" tooltips="1" connect="1" arrows="1" fold="1" page="1" pageScale="1" pageWidth="850" pageHeight="1100" math="0" shadow="0">
      <root>
        <mxCell id="0" />
        <mxCell id="1" parent="0" />
        <mxCell id="3maM5FhhAOUeDy2bfnMw-1" value="Healer" style="rounded=1;whiteSpace=wrap;html=1;strokeColor=#050505;fontColor=#FFFFFF;fillColor=#e3c800;shadow=1;gradientColor=#F0AA07;labelBorderColor=none;" parent="1" vertex="1">
          <mxGeometry x="340" y="260" width="120" height="60" as="geometry" />
        </mxCell>
        <mxCell id="3maM5FhhAOUeDy2bfnMw-2" value="&lt;font style=&quot;font-size: 22px;&quot;&gt;The Healer:&amp;nbsp;&lt;/font&gt;" style="text;html=1;align=center;verticalAlign=middle;resizable=0;points=[];autosize=1;strokeColor=none;fillColor=none;fontColor=#FCFCFC;" parent="1" vertex="1">
          <mxGeometry x="10" y="10" width="140" height="40" as="geometry" />
        </mxCell>
      </root>
    </mxGraphModel>
  </diagram>
  <diagram id="7hyot4LRAne5Zftrq3sd" name="Rogue">
    <mxGraphModel dx="1434" dy="1984" grid="1" gridSize="10" guides="1" tooltips="1" connect="1" arrows="1" fold="1" page="1" pageScale="1" pageWidth="850" pageHeight="1100" math="0" shadow="0">
      <root>
        <mxCell id="0" />
        <mxCell id="1" parent="0" />
        <mxCell id="ii0m2Z-5JxQSS9Wix1N_-1" value="Rogue" style="rounded=1;whiteSpace=wrap;html=1;strokeColor=#050505;fontColor=#ffffff;fillColor=#76608a;shadow=1;gradientColor=#77067A;labelBorderColor=none;" parent="1" vertex="1">
          <mxGeometry x="350" y="-780" width="120" height="60" as="geometry" />
        </mxCell>
        <mxCell id="zUBy-pgmQhSGCkQC7MqZ-1" value="&lt;font style=&quot;font-size: 22px;&quot;&gt;The Rogue:&amp;nbsp;&lt;/font&gt;" style="text;html=1;align=center;verticalAlign=middle;resizable=0;points=[];autosize=1;strokeColor=none;fillColor=none;fontColor=#FCFCFC;" parent="1" vertex="1">
          <mxGeometry x="15" y="-1090" width="140" height="40" as="geometry" />
        </mxCell>
      </root>
    </mxGraphModel>
  </diagram>
  <diagram id="zMzRJ6EzjpU69x9-CyO1" name="Summoner">
    <mxGraphModel dx="1434" dy="1984" grid="1" gridSize="10" guides="1" tooltips="1" connect="1" arrows="1" fold="1" page="1" pageScale="1" pageWidth="850" pageHeight="1100" math="0" shadow="0">
      <root>
        <mxCell id="0" />
        <mxCell id="1" parent="0" />
        <mxCell id="0LNoV6kDgMODzznM98QK-1" value="Summoner" style="rounded=1;whiteSpace=wrap;html=1;strokeColor=#050505;fontColor=#FCFCFC;fillColor=#fa6800;shadow=1;gradientColor=#D97C03;labelBorderColor=none;" parent="1" vertex="1">
          <mxGeometry x="340" y="-690" width="120" height="60" as="geometry" />
        </mxCell>
        <mxCell id="_ymytg4I1tZkxD_uNZ2m-1" value="&lt;font style=&quot;font-size: 22px;&quot;&gt;The Summoner:&amp;nbsp;&lt;/font&gt;" style="text;html=1;align=center;verticalAlign=middle;resizable=0;points=[];autosize=1;strokeColor=none;fillColor=none;fontColor=#FCFCFC;" parent="1" vertex="1">
          <mxGeometry x="10" y="-1080" width="190" height="40" as="geometry" />
        </mxCell>
      </root>
    </mxGraphModel>
  </diagram>
</mxfile>
